<svg width="22" height="21" viewBox="0 0 22 21" fill="none" xmlns="http://www.w3.org/2000/svg">
<path d="M2.06193 0H15.0671C16.5871 0.352736 17.1852 1.50602 17.16 2.77744C17.1159 4.98162 17.1485 7.18748 17.1474 9.39278C17.1468 11.0046 16.1093 12.024 14.469 12.0245C11.4921 12.0256 8.51526 12.0301 5.53896 12.0195C5.09495 12.0178 4.72714 12.1404 4.37708 12.402C3.30802 13.202 2.22865 13.9879 1.15042 14.7755C0.668021 15.1283 0.391302 15.0934 0 14.6444V1.9077C0.303646 0.874807 0.984271 0.231219 2.06193 0Z" fill="#C93B76" style="fill:#C93B76;fill:color(display-p3 0.7882 0.2314 0.4627);fill-opacity:1;"/>
<path d="M21.9994 20.5914C21.6729 21.0679 21.3486 21.1242 20.8754 20.7782C19.7897 19.9839 18.7023 19.1923 17.6258 18.3867C17.2838 18.1307 16.924 18.012 16.4903 18.0132C13.5031 18.0233 10.5165 18.0188 7.52927 18.0177C6.5324 18.0177 5.72859 17.657 5.19635 16.8014C4.9838 16.4587 4.87036 16.0813 4.85833 15.6846C4.84229 15.1339 4.85776 14.582 4.84974 14.0307C4.84688 13.8293 4.9288 13.7348 5.13448 13.7409C5.23932 13.7443 5.34417 13.7393 5.44958 13.7393C8.49406 13.7393 11.5385 13.7122 14.5824 13.7483C16.6621 13.773 18.5356 12.3024 18.8553 10.2288C18.8936 9.98068 18.8948 9.72639 18.8959 9.47436C18.9005 8.43697 18.8965 7.39957 18.8994 6.36218C18.9005 5.99763 18.9183 5.98469 19.2861 5.98188C20.7436 5.97119 21.5039 6.51183 22 7.91096V20.5914H21.9994Z" fill="#C93B76" style="fill:#C93B76;fill:color(display-p3 0.7882 0.2314 0.4627);fill-opacity:1;"/>
</svg>
