<svg width="124" height="28" viewBox="0 0 124 28" fill="none" xmlns="http://www.w3.org/2000/svg">
<path d="M32.232 22V12.544H30.576V10.096H32.232V9.328C32.232 8.288 32.4 7.392 32.736 6.64C33.088 5.872 33.576 5.28 34.2 4.864C34.84 4.448 35.584 4.24 36.432 4.24C36.944 4.24 37.456 4.304 37.968 4.432C38.496 4.56 39.016 4.744 39.528 4.984L38.88 7.408C38.64 7.28 38.36 7.176 38.04 7.096C37.72 7 37.416 6.952 37.128 6.952C36.584 6.952 36.168 7.144 35.88 7.528C35.592 7.912 35.448 8.472 35.448 9.208V10.096H38.52V12.544H35.448V22H32.232ZM45.9908 22.24C44.9668 22.24 44.0468 22.072 43.2308 21.736C42.4148 21.384 41.7188 20.904 41.1428 20.296C40.5828 19.688 40.1508 18.992 39.8468 18.208C39.5428 17.424 39.3908 16.6 39.3908 15.736C39.3908 14.856 39.5428 14.024 39.8468 13.24C40.1508 12.456 40.5828 11.76 41.1428 11.152C41.7188 10.544 42.4148 10.072 43.2308 9.736C44.0468 9.384 44.9668 9.208 45.9908 9.208C47.0148 9.208 47.9268 9.384 48.7268 9.736C49.5428 10.072 50.2388 10.544 50.8148 11.152C51.3908 11.76 51.8228 12.456 52.1108 13.24C52.4148 14.024 52.5668 14.856 52.5668 15.736C52.5668 16.6 52.4148 17.424 52.1108 18.208C51.8228 18.992 51.3908 19.688 50.8148 20.296C50.2548 20.904 49.5668 21.384 48.7508 21.736C47.9348 22.072 47.0148 22.24 45.9908 22.24ZM42.7028 15.736C42.7028 16.472 42.8468 17.128 43.1348 17.704C43.4228 18.264 43.8148 18.704 44.3108 19.024C44.8068 19.344 45.3668 19.504 45.9908 19.504C46.5988 19.504 47.1508 19.344 47.6468 19.024C48.1428 18.688 48.5348 18.24 48.8228 17.68C49.1268 17.104 49.2788 16.448 49.2788 15.712C49.2788 14.992 49.1268 14.344 48.8228 13.768C48.5348 13.192 48.1428 12.744 47.6468 12.424C47.1508 12.104 46.5988 11.944 45.9908 11.944C45.3668 11.944 44.8068 12.112 44.3108 12.448C43.8148 12.768 43.4228 13.216 43.1348 13.792C42.8468 14.352 42.7028 15 42.7028 15.736ZM62.2254 12.208C61.2494 12.208 60.3774 12.4 59.6094 12.784C58.8414 13.152 58.2894 13.688 57.9534 14.392V22H54.7374V9.424H57.6894V12.112C58.1374 11.248 58.7054 10.568 59.3934 10.072C60.0814 9.576 60.8094 9.304 61.5774 9.256C61.7534 9.256 61.8894 9.256 61.9854 9.256C62.0814 9.256 62.1614 9.264 62.2254 9.28V12.208ZM63.8987 17.296V9.424H67.1147V16.6C67.1147 17.56 67.2907 18.288 67.6427 18.784C67.9947 19.264 68.5147 19.504 69.2027 19.504C69.6187 19.504 70.0267 19.424 70.4267 19.264C70.8427 19.088 71.2187 18.832 71.5547 18.496C71.9067 18.16 72.2027 17.736 72.4427 17.224V9.424H75.6587V18.4C75.6587 18.736 75.7147 18.976 75.8267 19.12C75.9547 19.264 76.1547 19.352 76.4267 19.384V22C76.1067 22.048 75.8347 22.08 75.6107 22.096C75.4027 22.128 75.2107 22.144 75.0347 22.144C74.4587 22.144 73.9867 22.016 73.6187 21.76C73.2667 21.488 73.0587 21.12 72.9947 20.656L72.9227 19.648C72.3627 20.496 71.6427 21.144 70.7627 21.592C69.8827 22.024 68.9147 22.24 67.8587 22.24C66.5627 22.24 65.5787 21.824 64.9067 20.992C64.2347 20.144 63.8987 18.912 63.8987 17.296ZM98.3906 22H95.1746V14.944C95.1746 13.952 94.9986 13.224 94.6466 12.76C94.3106 12.28 93.8386 12.04 93.2306 12.04C92.6066 12.04 92.0066 12.288 91.4306 12.784C90.8706 13.264 90.4706 13.896 90.2306 14.68V22H87.0146V14.944C87.0146 13.936 86.8386 13.2 86.4866 12.736C86.1506 12.272 85.6786 12.04 85.0706 12.04C84.4466 12.04 83.8466 12.28 83.2706 12.76C82.7106 13.24 82.3106 13.872 82.0706 14.656V22H78.8546V9.424H81.7586V11.752C82.2386 10.936 82.8786 10.312 83.6786 9.88C84.4786 9.432 85.3986 9.208 86.4386 9.208C87.4786 9.208 88.2866 9.464 88.8626 9.976C89.4546 10.488 89.8306 11.12 89.9906 11.872C90.5026 11.008 91.1506 10.352 91.9346 9.904C92.7346 9.44 93.6306 9.208 94.6226 9.208C95.4066 9.208 96.0386 9.352 96.5186 9.64C97.0146 9.912 97.3986 10.288 97.6706 10.768C97.9426 11.232 98.1266 11.76 98.2226 12.352C98.3346 12.944 98.3906 13.544 98.3906 14.152V22ZM101.167 4.48H104.383V17.968C104.383 18.544 104.479 18.936 104.671 19.144C104.863 19.336 105.127 19.432 105.463 19.432C105.719 19.432 105.983 19.4 106.255 19.336C106.527 19.272 106.767 19.192 106.975 19.096L107.407 21.544C106.975 21.752 106.471 21.912 105.895 22.024C105.319 22.136 104.799 22.192 104.335 22.192C103.327 22.192 102.543 21.928 101.983 21.4C101.439 20.856 101.167 20.088 101.167 19.096V4.48ZM108.462 24.448C108.75 24.512 109.014 24.568 109.254 24.616C109.51 24.664 109.726 24.688 109.902 24.688C110.206 24.688 110.454 24.608 110.646 24.448C110.854 24.304 111.054 24.032 111.246 23.632C111.438 23.248 111.638 22.704 111.846 22L106.878 9.424H110.214L113.598 18.712L116.574 9.424H119.646L114.366 24.496C114.174 25.056 113.878 25.56 113.478 26.008C113.094 26.472 112.606 26.832 112.014 27.088C111.438 27.36 110.79 27.496 110.07 27.496C109.814 27.496 109.558 27.472 109.302 27.424C109.046 27.392 108.766 27.328 108.462 27.232V24.448ZM119.822 22V18.544H122.462V22H119.822Z" fill="#111729" style="fill:#111729;fill:color(display-p3 0.0667 0.0902 0.1608);fill-opacity:1;"/>
<path d="M2.06193 4H15.0671C16.5871 4.35274 17.1852 5.50602 17.16 6.77744C17.1159 8.98162 17.1485 11.1875 17.1474 13.3928C17.1468 15.0046 16.1093 16.024 14.469 16.0245C11.4921 16.0256 8.51526 16.0301 5.53896 16.0195C5.09495 16.0178 4.72714 16.1404 4.37708 16.402C3.30802 17.202 2.22865 17.9879 1.15042 18.7755C0.668021 19.1283 0.391302 19.0934 0 18.6444V5.9077C0.303646 4.87481 0.984271 4.23122 2.06193 4Z" fill="#C93B76" style="fill:#C93B76;fill:color(display-p3 0.7882 0.2314 0.4627);fill-opacity:1;"/>
<path d="M21.9994 24.5914C21.6729 25.0679 21.3486 25.1242 20.8754 24.7782C19.7897 23.9839 18.7023 23.1923 17.6258 22.3867C17.2838 22.1307 16.924 22.012 16.4903 22.0132C13.5031 22.0233 10.5165 22.0188 7.52927 22.0177C6.53239 22.0177 5.72859 21.657 5.19635 20.8014C4.9838 20.4587 4.87036 20.0813 4.85833 19.6846C4.84229 19.1339 4.85776 18.582 4.84974 18.0307C4.84688 17.8293 4.9288 17.7348 5.13448 17.7409C5.23932 17.7443 5.34417 17.7393 5.44958 17.7393C8.49406 17.7393 11.5385 17.7122 14.5824 17.7483C16.6621 17.773 18.5356 16.3024 18.8553 14.2288C18.8936 13.9807 18.8948 13.7264 18.8959 13.4744C18.9005 12.437 18.8965 11.3996 18.8994 10.3622C18.9005 9.99763 18.9183 9.98469 19.2861 9.98188C20.7436 9.97119 21.5039 10.5118 22 11.911V24.5914H21.9994Z" fill="#C93B76" style="fill:#C93B76;fill:color(display-p3 0.7882 0.2314 0.4627);fill-opacity:1;"/>
</svg>
